<svg width="35" height="35" viewBox="0 0 35 35" fill="none" xmlns="http://www.w3.org/2000/svg">
<g clip-path="url(#clip0_265_7319)">
<path d="M25.9765 17.5C25.9778 19.4948 25.2751 21.426 23.9922 22.9535C22.7093 24.481 20.9284 25.5067 18.9634 25.85C16.9984 26.1932 14.9753 25.832 13.2505 24.8299C11.5257 23.8278 10.2099 22.2492 9.5349 20.3721L4.68652 24.2507C6.1941 27.1165 8.61841 29.3946 11.5724 30.7211C14.5263 32.0476 17.8396 32.3461 20.9831 31.5689C24.1266 30.7918 26.919 28.9838 28.9145 26.4336C30.9101 23.8834 31.9936 20.7381 31.9921 17.5" fill="#00AC47"/>
<path d="M25.9766 17.5C25.9755 18.8486 25.6522 20.1774 25.0335 21.3757C24.4149 22.5741 23.5189 23.6073 22.4202 24.3892L27.2134 28.2238C28.7164 26.8706 29.9185 25.2167 30.7417 23.3694C31.5649 21.5221 31.991 19.5224 31.9922 17.5" fill="#4285F4"/>
<path d="M9.02344 17.5C9.02554 16.5202 9.19865 15.5482 9.53498 14.6279L4.68661 10.7493C3.5842 12.8287 3.00781 15.1464 3.00781 17.5C3.00781 19.8536 3.5842 22.1713 4.68661 24.2507L9.53498 20.3721C9.19865 19.4518 9.02554 18.4798 9.02344 17.5Z" fill="#FFBA00"/>
<path d="M17.4999 9.02345C19.2935 9.02395 21.0401 9.59712 22.4852 10.6595L26.9258 6.51493C25.2774 5.09367 23.3293 4.06303 21.2269 3.49993C19.1245 2.93682 16.922 2.8558 14.7839 3.26289C12.6458 3.66999 10.6272 4.55469 8.8788 5.85099C7.1304 7.14729 5.69733 8.8217 4.68652 10.7493L9.5349 14.6279C10.1262 12.9888 11.2079 11.5715 12.633 10.5688C14.0581 9.56605 15.7574 9.02648 17.4999 9.02345Z" fill="#EA4435"/>
<path d="M31.9922 16.4062V17.5L29.5312 21.3281H18.0469V15.3125H30.8984C31.1885 15.3125 31.4667 15.4277 31.6718 15.6329C31.877 15.838 31.9922 16.1162 31.9922 16.4062Z" fill="#4285F4"/>
</g>
<defs>
<clipPath id="clip0_265_7319">
<rect width="35" height="35" fill="white"/>
</clipPath>
</defs>
</svg>
