<svg width="722" height="900" viewBox="0 0 722 900" fill="none" xmlns="http://www.w3.org/2000/svg">
<g clip-path="url(#clip0_359_4233)">
<path d="M-75.5656 537.001C-60.0272 572.591 -38.1205 600.265 -11.2697 618.223C15.5811 636.182 46.7746 644.022 80.2827 641.235C113.791 638.449 148.863 625.097 183.219 602.048C217.576 578.999 250.447 546.769 279.695 507.454C308.943 468.14 333.914 422.62 352.983 373.855C372.053 325.09 384.794 274.171 390.379 224.41C395.964 174.649 394.267 127.16 385.399 85.0293C376.531 42.8992 360.69 7.0716 338.906 -20.1238" stroke="#262262" stroke-width="5"/>
<path d="M-75.5656 537.001C-60.0272 572.591 -38.1205 600.265 -11.2697 618.223C15.5811 636.182 46.7746 644.022 80.2827 641.235C113.791 638.449 148.863 625.097 183.219 602.048C217.576 578.999 250.447 546.769 279.695 507.454C308.943 468.14 333.914 422.62 352.983 373.855C372.053 325.09 384.794 274.171 390.379 224.41C395.964 174.649 394.267 127.16 385.399 85.0293C376.531 42.8992 360.69 7.0716 338.906 -20.1238" stroke="#262262" stroke-width="5"/>
<path d="M-115.566 537.001C-100.027 572.591 -78.1205 600.265 -51.2697 618.223C-24.4189 636.182 6.77458 644.022 40.2827 641.235C73.7908 638.449 108.863 625.097 143.219 602.048C177.576 578.999 210.447 546.769 239.695 507.454C268.943 468.14 293.914 422.62 312.983 373.855C332.053 325.09 344.794 274.171 350.379 224.41C355.964 174.649 354.267 127.16 345.399 85.0293C336.531 42.8992 320.69 7.0716 298.906 -20.1238" stroke="#2AB2DB" stroke-width="5"/>
<path d="M-36.5656 555.001C-21.0272 590.591 0.879543 618.265 27.7303 636.223C54.5811 654.182 85.7746 662.022 119.283 659.235C152.791 656.449 187.863 643.097 222.219 620.048C256.576 596.999 289.447 564.769 318.695 525.454C347.943 486.14 372.914 440.62 391.983 391.855C411.053 343.09 423.794 292.171 429.379 242.41C434.964 192.649 433.267 145.16 424.399 103.029C415.531 60.8992 399.69 25.0716 377.906 -2.12376" stroke="#262262" stroke-width="5"/>
<path d="M-36.5656 555.001C-21.0272 590.591 0.879543 618.265 27.7303 636.223C54.5811 654.182 85.7746 662.022 119.283 659.235C152.791 656.449 187.863 643.097 222.219 620.048C256.576 596.999 289.447 564.769 318.695 525.454C347.943 486.14 372.914 440.62 391.983 391.855C411.053 343.09 423.794 292.171 429.379 242.41C434.964 192.649 433.267 145.16 424.399 103.029C415.531 60.8992 399.69 25.0716 377.906 -2.12376" stroke="#8DC63F" stroke-width="5"/>
<path d="M2.43435 578.001C17.9728 613.591 39.8795 641.265 66.7303 659.223C93.5811 677.182 124.775 685.022 158.283 682.235C191.791 679.449 226.863 666.097 261.219 643.048C295.576 619.999 328.447 587.769 357.695 548.454C386.943 509.14 411.914 463.62 430.983 414.855C450.053 366.09 462.794 315.171 468.379 265.41C473.964 215.649 472.267 168.16 463.399 126.029C454.531 83.8992 438.69 48.0716 416.906 20.8762" stroke="#262262" stroke-width="5"/>
<path d="M-163.566 533.001C-148.027 568.591 -126.12 596.265 -99.2697 614.223C-72.4189 632.182 -41.2254 640.022 -7.71733 637.235C25.7908 634.449 60.8631 621.097 95.2194 598.048C129.576 574.999 162.447 542.769 191.695 503.454C220.943 464.14 245.914 418.62 264.983 369.855C284.053 321.09 296.794 270.171 302.379 220.41C307.964 170.649 306.267 123.16 297.399 81.0293C288.531 38.8992 272.69 3.0716 250.906 -24.1238" stroke="#262262" stroke-width="5"/>
<path d="M-329.566 488.001C-314.027 523.591 -292.12 551.265 -265.27 569.223C-238.419 587.182 -207.225 595.022 -173.717 592.235C-140.209 589.449 -105.137 576.097 -70.7806 553.048C-36.4244 529.999 -3.55349 497.769 25.6947 458.454C54.9429 419.14 79.9136 373.62 98.9831 324.855C118.053 276.09 130.794 225.171 136.379 175.41C141.964 125.649 140.267 78.1595 131.399 36.0293C122.531 -6.10085 106.69 -41.9284 84.9065 -69.1238" stroke="#262262" stroke-width="5"/>
<path d="M-233.566 483.001C-218.027 518.591 -196.12 546.265 -169.27 564.223C-142.419 582.182 -111.225 590.022 -77.7173 587.235C-44.2092 584.449 -9.13688 571.097 25.2194 548.048C59.5756 524.999 92.4465 492.769 121.695 453.454C150.943 414.14 175.914 368.62 194.983 319.855C214.053 271.09 226.794 220.171 232.379 170.41C237.964 120.649 236.267 73.1595 227.399 31.0293C218.531 -11.1008 202.69 -46.9284 180.906 -74.1238" stroke="#3083F9" stroke-width="5"/>
<path d="M33.4344 603.001C48.9728 638.591 70.8795 666.265 97.7303 684.223C124.581 702.182 155.775 710.022 189.283 707.235C222.791 704.449 257.863 691.097 292.219 668.048C326.576 644.999 359.447 612.769 388.695 573.454C417.943 534.14 442.914 488.62 461.983 439.855C481.053 391.09 493.794 340.171 499.379 290.41C504.964 240.649 503.267 193.16 494.399 151.029C485.531 108.899 469.69 73.0716 447.906 45.8762" stroke="#262262" stroke-width="5"/>
<path d="M64.4344 628.001C79.9728 663.591 101.88 691.265 128.73 709.223C155.581 727.182 186.775 735.022 220.283 732.235C253.791 729.449 288.863 716.097 323.219 693.048C357.576 669.999 390.447 637.769 419.695 598.454C448.943 559.14 473.914 513.62 492.983 464.855C512.053 416.09 524.794 365.171 530.379 315.41C535.964 265.649 534.267 218.16 525.399 176.029C516.531 133.899 500.69 98.0716 478.906 70.8762" stroke="#8DC63F" stroke-width="5"/>
<path d="M95.4344 653.001C110.973 688.591 132.88 716.265 159.73 734.223C186.581 752.182 217.775 760.022 251.283 757.235C284.791 754.449 319.863 741.097 354.219 718.048C388.576 694.999 421.447 662.769 450.695 623.454C479.943 584.14 504.914 538.62 523.983 489.855C543.053 441.09 555.794 390.171 561.379 340.41C566.964 290.649 565.267 243.16 556.399 201.029C547.531 158.899 531.69 123.072 509.906 95.8762" stroke="#262262" stroke-width="5"/>
<path d="M95.4344 677.001C110.973 712.591 132.88 740.265 159.73 758.223C186.581 776.182 217.775 784.022 251.283 781.235C284.791 778.449 319.863 765.097 354.219 742.048C388.576 718.999 421.447 686.769 450.695 647.454C479.943 608.14 504.914 562.62 523.983 513.855C543.053 465.09 555.794 414.171 561.379 364.41C566.964 314.649 565.267 267.16 556.399 225.029C547.531 182.899 531.69 147.072 509.906 119.876" stroke="#262262" stroke-width="5"/>
<path d="M126.434 702.001C141.973 737.591 163.88 765.265 190.73 783.223C217.581 801.182 248.775 809.022 282.283 806.235C315.791 803.449 350.863 790.097 385.219 767.048C419.576 743.999 452.447 711.769 481.695 672.454C510.943 633.14 535.914 587.62 554.983 538.855C574.053 490.09 586.794 439.171 592.379 389.41C597.964 339.649 596.267 292.16 587.399 250.029C578.531 207.899 562.69 172.072 540.906 144.876" stroke="#8DC63F" stroke-width="5"/>
<path d="M157.434 727.001C172.973 762.591 194.88 790.265 221.73 808.223C248.581 826.182 279.775 834.022 313.283 831.235C346.791 828.449 381.863 815.097 416.219 792.048C450.576 768.999 483.447 736.769 512.695 697.454C541.943 658.14 566.914 612.62 585.983 563.855C605.053 515.09 617.794 464.171 623.379 414.41C628.964 364.649 627.267 317.16 618.399 275.029C609.531 232.899 593.69 197.072 571.906 169.876" stroke="#8DC63F" stroke-width="5"/>
<path d="M188.434 752.001C203.973 787.591 225.88 815.265 252.73 833.223C279.581 851.182 310.775 859.022 344.283 856.235C377.791 853.449 412.863 840.097 447.219 817.048C481.576 793.999 514.447 761.769 543.695 722.454C572.943 683.14 597.914 637.62 616.983 588.855C636.053 540.09 648.794 489.171 654.379 439.41C659.964 389.649 658.267 342.16 649.399 300.029C640.531 257.899 624.69 222.072 602.906 194.876" stroke="#8DC63F" stroke-width="5"/>
<path d="M219.434 777.001C234.973 812.591 256.88 840.265 283.73 858.223C310.581 876.182 341.775 884.022 375.283 881.235C408.791 878.449 443.863 865.097 478.219 842.048C512.576 818.999 545.447 786.769 574.695 747.454C603.943 708.14 628.914 662.62 647.983 613.855C667.053 565.09 679.794 514.171 685.379 464.41C690.964 414.649 689.267 367.16 680.399 325.029C671.531 282.899 655.69 247.072 633.906 219.876" stroke="#262262" stroke-width="5"/>
<path d="M219.434 777.001C234.973 812.591 256.88 840.265 283.73 858.223C310.581 876.182 341.775 884.022 375.283 881.235C408.791 878.449 443.863 865.097 478.219 842.048C512.576 818.999 545.447 786.769 574.695 747.454C603.943 708.14 628.914 662.62 647.983 613.855C667.053 565.09 679.794 514.171 685.379 464.41C690.964 414.649 689.267 367.16 680.399 325.029C671.531 282.899 655.69 247.072 633.906 219.876" stroke="#2AB2DB" stroke-width="5"/>
<path d="M261.434 821.001C276.973 856.591 298.88 884.265 325.73 902.223C352.581 920.182 383.775 928.022 417.283 925.235C450.791 922.449 485.863 909.097 520.219 886.048C554.576 862.999 587.447 830.769 616.695 791.454C645.943 752.14 670.914 706.62 689.983 657.855C709.053 609.09 721.794 558.171 727.379 508.41C732.964 458.649 731.267 411.16 722.399 369.029C713.531 326.899 697.69 291.072 675.906 263.876" stroke="#262262" stroke-width="5"/>
</g>
<defs>
<clipPath id="clip0_359_4233">
<rect width="722" height="900" fill="white"/>
</clipPath>
</defs>
</svg>
