<?xml version="1.0" encoding="UTF-8" standalone="no"?>
<svg
   width="544.8891"
   height="484.44717"
   viewBox="0 0 544.8891 484.44717"
   fill="none"
   version="1.1"
   id="svg26"
   sodipodi:docname="lines.svg"
   xmlns:inkscape="http://www.inkscape.org/namespaces/inkscape"
   xmlns:sodipodi="http://sodipodi.sourceforge.net/DTD/sodipodi-0.dtd"
   xmlns="http://www.w3.org/2000/svg"
   xmlns:svg="http://www.w3.org/2000/svg">
  <defs
     id="defs26" />
  <sodipodi:namedview
     id="namedview26"
     pagecolor="#ffffff"
     bordercolor="#000000"
     borderopacity="0.25"
     inkscape:showpageshadow="2"
     inkscape:pageopacity="0.0"
     inkscape:pagecheckerboard="0"
     inkscape:deskcolor="#d1d1d1"
     showgrid="false" />
  <mask
     id="mask0_638_5450"
     maskUnits="userSpaceOnUse"
     x="0"
     y="0"
     width="1520"
     height="638">
    <rect
       width="1520"
       height="638"
       rx="10"
       fill="#1c1c1c"
       id="rect1"
       x="0"
       y="0" />
  </mask>
  <g
     mask="url(#mask0_638_5450)"
     id="g26"
     transform="translate(0,-153.55283)">
    <path
       d="m 512.874,547.425 c 0,0 -187.921,-137.171 -440.9613,-136.066 -253.0607,1.097 143.6593,444.792 143.6593,444.792 -0.008,-0.015 -22.001,-25.059 -22.001,-25.059"
       stroke="#007cba"
       stroke-opacity="1"
       stroke-width="0.877694"
       id="path1" />
    <path
       d="m 502.541,537.338 c 0,0 -186.548,-141.703 -439.8168,-138.896 -253.2582,2.806 138.8648,462.603 138.8648,462.603 -0.008,-0.015 -21.742,-25.97 -21.742,-25.97"
       stroke="#007cba"
       stroke-opacity="1"
       stroke-width="0.877694"
       id="path2" />
    <path
       d="m 491.932,526.942 c 0,0 -185.193,-146.252 -438.6814,-141.736 -253.4856,4.519 134.0784,480.402 134.0784,480.402 -0.008,-0.016 -21.483,-26.882 -21.483,-26.882"
       stroke="#007cba"
       stroke-opacity="1"
       stroke-width="0.877694"
       id="path3" />
    <path
       d="m 480.92,516.086 c 0,0 -183.852,-150.803 -437.5731,-144.578 -253.7269,6.227 129.3071,498.202 129.3071,498.202 -0.009,-0.016 -21.227,-27.793 -21.227,-27.793"
       stroke="#007cba"
       stroke-opacity="1"
       stroke-width="0.877694"
       id="path4" />
    <path
       d="m 469.861,505.175 c 0,0 -182.516,-155.34 -436.4836,-147.41 -253.9664,7.932 124.5496,516.008 124.5496,516.008 -0.009,-0.015 -20.972,-28.704 -20.972,-28.704"
       stroke="#007cba"
       stroke-opacity="1"
       stroke-width="0.877694"
       id="path5" />
    <path
       d="m 458.74,494.215 c 0,0 -181.2,-159.895 -435.4292,-150.26 -254.2368,9.64 119.8052,533.821 119.8052,533.821 -0.008,-0.016 -20.718,-29.617 -20.718,-29.617"
       stroke="#007cba"
       stroke-opacity="1"
       stroke-width="0.877694"
       id="path6" />
    <path
       d="m 447.586,483.196 c 0,0 -179.895,-164.454 -434.4181,-153.109 -254.5229,11.346 115.0751,551.641 115.0751,551.641 -0.009,-0.016 -20.467,-30.529 -20.467,-30.529"
       stroke="#007cba"
       stroke-opacity="1"
       stroke-width="0.877694"
       id="path7" />
    <path
       d="m 436.391,472.136 c 0,0 -178.603,-169.016 -433.4121,-155.953 C -251.828,329.23 113.336,885.654 113.336,885.654 113.327,885.637 93.1187,854.21 93.1187,854.21"
       stroke="#007cba"
       stroke-opacity="1"
       stroke-width="0.877694"
       id="path8" />
    <path
       d="m 145.423,309.42 c 0,0 308.542,86.102 393.529,289.361 84.985,203.244 -840.552,93.887 -840.552,93.887 l 52.132,5.853"
       stroke="#007cba"
       stroke-opacity="1"
       stroke-width="0.877694"
       id="path9" />
    <path
       d="m 131.049,299.988 c 0,0 303.222,88.064 390.04,290.391 86.822,202.325 -820.028,85.873 -820.028,85.873 l 51.074,6.255"
       stroke="#007cba"
       stroke-opacity="1"
       stroke-width="0.877694"
       id="path10" />
    <path
       d="m 116.536,288.934 c 0,0 297.899,90.023 386.542,291.415 88.646,201.391 -799.492,77.865 -799.492,77.865 l 50.014,6.656"
       stroke="#82bc00"
       stroke-opacity="1"
       stroke-width="0.877694"
       id="path11" />
    <path
       d="m 101.883,277.77 c 0,0 292.575,91.977 383.042,292.447 90.472,200.47 -778.959,69.868 -778.959,69.868 l 48.955,7.057"
       stroke="#007cba"
       stroke-opacity="1"
       stroke-width="0.877694"
       id="path12" />
    <path
       d="m 87.1098,266.492 c 0,0 287.2392,93.913 379.5252,293.46 92.283,199.532 -758.431,61.88 -758.431,61.88 l 47.895,7.456"
       stroke="#131f6b"
       stroke-opacity="1"
       stroke-width="0.877694"
       id="path13" />
    <path
       d="m 72.2081,255.163 c 0,0 281.9089,95.86 375.9989,294.468 94.093,198.608 -737.91,53.902 -737.91,53.902 l 46.836,7.856"
       stroke="#007cba"
       stroke-opacity="1"
       stroke-width="0.877694"
       id="path14" />
    <path
       d="m 56.7317,244.153 c 0,0 276.5763,97.801 372.4613,295.47 95.888,197.668 -717.413,45.935 -717.413,45.935 l 45.776,8.254"
       stroke="#007cba"
       stroke-opacity="1"
       stroke-width="0.877694"
       id="path15" />
    <path
       d="m 41.0364,233.183 c 0,0 271.2406,99.739 368.9116,296.467 97.682,196.74 -696.896,37.992 -696.896,37.992 l 44.716,8.653"
       stroke="#007cba"
       stroke-opacity="1"
       stroke-width="0.877694"
       id="path16" />
    <path
       d="m 24.398,222.894 c 0,0 265.894,101.659 365.357,297.472 99.459,195.798 -676.393,30.046 -676.393,30.046 l 43.655,9.049"
       stroke="#007cba"
       stroke-opacity="1"
       stroke-width="0.877694"
       id="path17" />
    <path
       d="m 7.02618,213.114 c 0,0 260.55082,103.588 361.78182,298.457 101.233,194.867 -655.898,22.112 -655.898,22.112 l 42.596,9.446"
       stroke="#007cba"
       stroke-opacity="1"
       stroke-width="0.877694"
       id="path18" />
    <path
       d="m -11.0325,203.814 c 0,0 255.2045,105.512 358.1915,299.435 102.99,193.922 -635.409,14.191 -635.409,14.191 l 41.535,9.842"
       stroke="#007cba"
       stroke-opacity="1"
       stroke-width="0.877694"
       id="path19" />
    <path
       d="m -29.7087,194.973 c 0,0 249.8537,107.432 354.5857,300.408 104.741,192.989 -614.946,6.286 -614.946,6.286 l 40.476,10.235"
       stroke="#131f6b"
       stroke-opacity="1"
       stroke-width="0.877694"
       id="path20" />
    <path
       d="m -48.4655,186.66 c 0,0 244.4915,109.333 350.9685,301.388 106.474,192.04 -594.465,-1.597 -594.465,-1.597 l 39.415,10.631"
       stroke="#007cba"
       stroke-opacity="1"
       stroke-width="0.877694"
       id="path21" />
    <path
       d="m -67.2254,178.823 c 0,0 239.1304,111.242 347.3264,302.347 108.198,191.104 -574.003,-9.48 -574.003,-9.48 l 38.354,11.022"
       stroke="#007cba"
       stroke-opacity="1"
       stroke-width="0.877694"
       id="path22" />
    <path
       d="m -84.6888,171.702 c 0,0 233.7628,113.147 343.6638,303.3 109.901,190.152 -553.551,-17.351 -553.551,-17.351 l 37.293,11.416"
       stroke="#007cba"
       stroke-opacity="1"
       stroke-width="0.877694"
       id="path23" />
    <path
       d="m -101.027,165.226 c 0,0 228.385,115.033 339.981,304.246 111.595,189.212 -533.125,-25.202 -533.125,-25.202 l 36.23,11.806"
       stroke="#007cba"
       stroke-opacity="1"
       stroke-width="0.877694"
       id="path24" />
    <path
       d="m -116.305,159.322 c 0,0 223.006,116.927 336.27,305.185 113.264,188.257 -512.695,-33.044 -512.695,-33.044 l 35.169,12.197"
       stroke="#82bc00"
       stroke-opacity="1"
       stroke-width="0.877694"
       id="path25" />
    <path
       d="m -130.607,153.938 c 0,0 217.6211,118.816 332.542,306.13 114.92,187.315 -492.271,-40.857 -492.271,-40.857 -0.009,0.003 34.107,12.588 34.107,12.588"
       stroke="#007cba"
       stroke-opacity="1"
       stroke-width="0.877694"
       id="path26" />
  </g>
</svg>
