<svg width="85" height="30" viewBox="0 0 85 30" fill="none" xmlns="http://www.w3.org/2000/svg">
<path d="M16.164 15.732V22.332C15.3 22.956 14.376 23.424 13.392 23.736C12.416 24.04 11.344 24.192 10.176 24.192C8.792 24.192 7.544 23.98 6.432 23.556C5.32 23.124 4.368 22.524 3.576 21.756C2.792 20.98 2.188 20.052 1.764 18.972C1.34 17.892 1.128 16.704 1.128 15.408C1.128 14.096 1.332 12.9 1.74 11.82C2.156 10.74 2.744 9.816 3.504 9.048C4.264 8.272 5.188 7.672 6.276 7.248C7.364 6.824 8.58 6.612 9.924 6.612C10.604 6.612 11.236 6.664 11.82 6.768C12.404 6.864 12.944 7.008 13.44 7.2C13.936 7.384 14.396 7.612 14.82 7.884C15.244 8.148 15.64 8.448 16.008 8.784L15.348 9.84C15.244 10 15.108 10.104 14.94 10.152C14.78 10.192 14.6 10.152 14.4 10.032C14.208 9.92 13.988 9.784 13.74 9.624C13.492 9.464 13.188 9.312 12.828 9.168C12.476 9.016 12.056 8.888 11.568 8.784C11.088 8.68 10.516 8.628 9.852 8.628C8.884 8.628 8.008 8.788 7.224 9.108C6.44 9.42 5.772 9.872 5.22 10.464C4.668 11.048 4.244 11.76 3.948 12.6C3.652 13.432 3.504 14.368 3.504 15.408C3.504 16.488 3.656 17.456 3.96 18.312C4.272 19.16 4.712 19.884 5.28 20.484C5.856 21.076 6.552 21.528 7.368 21.84C8.184 22.152 9.1 22.308 10.116 22.308C10.916 22.308 11.624 22.22 12.24 22.044C12.864 21.86 13.472 21.608 14.064 21.288V17.508H11.388C11.236 17.508 11.112 17.464 11.016 17.376C10.928 17.288 10.884 17.18 10.884 17.052V15.732H16.164Z" fill="#3083F9"/>
<path d="M24.2066 11.652C25.0946 11.652 25.8946 11.8 26.6066 12.096C27.3186 12.392 27.9266 12.812 28.4306 13.356C28.9346 13.9 29.3186 14.56 29.5826 15.336C29.8546 16.104 29.9906 16.964 29.9906 17.916C29.9906 18.876 29.8546 19.74 29.5826 20.508C29.3186 21.276 28.9346 21.932 28.4306 22.476C27.9266 23.02 27.3186 23.44 26.6066 23.736C25.8946 24.024 25.0946 24.168 24.2066 24.168C23.3106 24.168 22.5026 24.024 21.7826 23.736C21.0706 23.44 20.4626 23.02 19.9586 22.476C19.4546 21.932 19.0666 21.276 18.7946 20.508C18.5306 19.74 18.3986 18.876 18.3986 17.916C18.3986 16.964 18.5306 16.104 18.7946 15.336C19.0666 14.56 19.4546 13.9 19.9586 13.356C20.4626 12.812 21.0706 12.392 21.7826 12.096C22.5026 11.8 23.3106 11.652 24.2066 11.652ZM24.2066 22.5C25.4066 22.5 26.3026 22.1 26.8946 21.3C27.4866 20.492 27.7826 19.368 27.7826 17.928C27.7826 16.48 27.4866 15.352 26.8946 14.544C26.3026 13.736 25.4066 13.332 24.2066 13.332C23.5986 13.332 23.0666 13.436 22.6106 13.644C22.1626 13.852 21.7866 14.152 21.4826 14.544C21.1866 14.936 20.9626 15.42 20.8106 15.996C20.6666 16.564 20.5946 17.208 20.5946 17.928C20.5946 19.368 20.8906 20.492 21.4826 21.3C22.0826 22.1 22.9906 22.5 24.2066 22.5Z" fill="#F93823"/>
<path d="M37.8238 11.652C38.7118 11.652 39.5118 11.8 40.2238 12.096C40.9358 12.392 41.5438 12.812 42.0478 13.356C42.5518 13.9 42.9358 14.56 43.1998 15.336C43.4718 16.104 43.6078 16.964 43.6078 17.916C43.6078 18.876 43.4718 19.74 43.1998 20.508C42.9358 21.276 42.5518 21.932 42.0478 22.476C41.5438 23.02 40.9358 23.44 40.2238 23.736C39.5118 24.024 38.7118 24.168 37.8238 24.168C36.9278 24.168 36.1198 24.024 35.3998 23.736C34.6878 23.44 34.0798 23.02 33.5758 22.476C33.0718 21.932 32.6838 21.276 32.4118 20.508C32.1478 19.74 32.0158 18.876 32.0158 17.916C32.0158 16.964 32.1478 16.104 32.4118 15.336C32.6838 14.56 33.0718 13.9 33.5758 13.356C34.0798 12.812 34.6878 12.392 35.3998 12.096C36.1198 11.8 36.9278 11.652 37.8238 11.652ZM37.8238 22.5C39.0238 22.5 39.9198 22.1 40.5118 21.3C41.1038 20.492 41.3998 19.368 41.3998 17.928C41.3998 16.48 41.1038 15.352 40.5118 14.544C39.9198 13.736 39.0238 13.332 37.8238 13.332C37.2158 13.332 36.6838 13.436 36.2278 13.644C35.7798 13.852 35.4038 14.152 35.0998 14.544C34.8038 14.936 34.5798 15.42 34.4278 15.996C34.2838 16.564 34.2118 17.208 34.2118 17.928C34.2118 19.368 34.5078 20.492 35.0998 21.3C35.6998 22.1 36.6078 22.5 37.8238 22.5Z" fill="#FCBC01"/>
<path d="M50.4827 18.06C50.9147 18.06 51.2947 18 51.6227 17.88C51.9507 17.76 52.2267 17.592 52.4507 17.376C52.6747 17.16 52.8427 16.904 52.9547 16.608C53.0667 16.304 53.1227 15.972 53.1227 15.612C53.1227 14.868 52.8947 14.276 52.4387 13.836C51.9907 13.396 51.3387 13.176 50.4827 13.176C49.6187 13.176 48.9587 13.396 48.5027 13.836C48.0547 14.276 47.8307 14.868 47.8307 15.612C47.8307 15.972 47.8867 16.304 47.9987 16.608C48.1187 16.904 48.2907 17.16 48.5147 17.376C48.7387 17.592 49.0147 17.76 49.3427 17.88C49.6707 18 50.0507 18.06 50.4827 18.06ZM54.3347 24.66C54.3347 24.364 54.2507 24.124 54.0827 23.94C53.9147 23.756 53.6867 23.612 53.3987 23.508C53.1187 23.404 52.7907 23.332 52.4147 23.292C52.0387 23.244 51.6387 23.208 51.2147 23.184C50.7987 23.16 50.3747 23.136 49.9427 23.112C49.5107 23.088 49.0947 23.048 48.6947 22.992C48.2467 23.2 47.8787 23.464 47.5907 23.784C47.3107 24.096 47.1707 24.464 47.1707 24.888C47.1707 25.16 47.2387 25.412 47.3747 25.644C47.5187 25.884 47.7347 26.088 48.0227 26.256C48.3107 26.432 48.6707 26.568 49.1027 26.664C49.5427 26.768 50.0587 26.82 50.6507 26.82C51.2267 26.82 51.7427 26.768 52.1987 26.664C52.6547 26.56 53.0387 26.412 53.3507 26.22C53.6707 26.028 53.9147 25.8 54.0827 25.536C54.2507 25.272 54.3347 24.98 54.3347 24.66ZM56.5067 12.324V13.116C56.5067 13.38 56.3387 13.548 56.0027 13.62L54.6227 13.8C54.8947 14.328 55.0307 14.912 55.0307 15.552C55.0307 16.144 54.9147 16.684 54.6827 17.172C54.4587 17.652 54.1467 18.064 53.7467 18.408C53.3467 18.752 52.8667 19.016 52.3067 19.2C51.7467 19.384 51.1387 19.476 50.4827 19.476C49.9147 19.476 49.3787 19.408 48.8747 19.272C48.6187 19.432 48.4227 19.604 48.2867 19.788C48.1507 19.964 48.0827 20.144 48.0827 20.328C48.0827 20.616 48.1987 20.836 48.4307 20.988C48.6707 21.132 48.9827 21.236 49.3667 21.3C49.7507 21.364 50.1867 21.404 50.6747 21.42C51.1707 21.436 51.6747 21.464 52.1867 21.504C52.7067 21.536 53.2107 21.596 53.6987 21.684C54.1947 21.772 54.6347 21.916 55.0187 22.116C55.4027 22.316 55.7107 22.592 55.9427 22.944C56.1827 23.296 56.3027 23.752 56.3027 24.312C56.3027 24.832 56.1707 25.336 55.9067 25.824C55.6507 26.312 55.2787 26.744 54.7907 27.12C54.3027 27.504 53.7027 27.808 52.9907 28.032C52.2867 28.264 51.4907 28.38 50.6027 28.38C49.7147 28.38 48.9387 28.292 48.2747 28.116C47.6107 27.94 47.0587 27.704 46.6187 27.408C46.1787 27.112 45.8467 26.768 45.6227 26.376C45.4067 25.992 45.2987 25.588 45.2987 25.164C45.2987 24.564 45.4867 24.056 45.8627 23.64C46.2387 23.224 46.7547 22.892 47.4107 22.644C47.0507 22.484 46.7627 22.272 46.5467 22.008C46.3387 21.736 46.2347 21.372 46.2347 20.916C46.2347 20.74 46.2667 20.56 46.3307 20.376C46.3947 20.184 46.4907 19.996 46.6187 19.812C46.7547 19.62 46.9187 19.44 47.1107 19.272C47.3027 19.104 47.5267 18.956 47.7827 18.828C47.1827 18.492 46.7147 18.048 46.3787 17.496C46.0427 16.936 45.8747 16.288 45.8747 15.552C45.8747 14.96 45.9867 14.424 46.2107 13.944C46.4427 13.456 46.7627 13.044 47.1707 12.708C47.5787 12.364 48.0627 12.1 48.6227 11.916C49.1907 11.732 49.8107 11.64 50.4827 11.64C51.0107 11.64 51.5027 11.7 51.9587 11.82C52.4147 11.932 52.8307 12.1 53.2067 12.324H56.5067Z" fill="#387FFC"/>
<path d="M60.9234 6.324V24H58.7874V6.324H60.9234Z" fill="#29B049"/>
<path d="M72.5233 16.596C72.5233 16.1 72.4513 15.648 72.3073 15.24C72.1713 14.824 71.9673 14.468 71.6953 14.172C71.4313 13.868 71.1073 13.636 70.7233 13.476C70.3393 13.308 69.9033 13.224 69.4153 13.224C68.3913 13.224 67.5793 13.524 66.9793 14.124C66.3873 14.716 66.0193 15.54 65.8753 16.596H72.5233ZM74.2513 22.296C73.9873 22.616 73.6713 22.896 73.3033 23.136C72.9353 23.368 72.5393 23.56 72.1153 23.712C71.6993 23.864 71.2673 23.976 70.8193 24.048C70.3713 24.128 69.9273 24.168 69.4873 24.168C68.6473 24.168 67.8713 24.028 67.1593 23.748C66.4553 23.46 65.8433 23.044 65.3233 22.5C64.8113 21.948 64.4113 21.268 64.1233 20.46C63.8353 19.652 63.6913 18.724 63.6913 17.676C63.6913 16.828 63.8193 16.036 64.0753 15.3C64.3393 14.564 64.7153 13.928 65.2033 13.392C65.6913 12.848 66.2873 12.424 66.9913 12.12C67.6953 11.808 68.4873 11.652 69.3673 11.652C70.0953 11.652 70.7673 11.776 71.3833 12.024C72.0073 12.264 72.5433 12.616 72.9913 13.08C73.4473 13.536 73.8033 14.104 74.0593 14.784C74.3153 15.456 74.4433 16.224 74.4433 17.088C74.4433 17.424 74.4073 17.648 74.3353 17.76C74.2633 17.872 74.1273 17.928 73.9273 17.928H65.8033C65.8273 18.696 65.9313 19.364 66.1153 19.932C66.3073 20.5 66.5713 20.976 66.9073 21.36C67.2433 21.736 67.6433 22.02 68.1073 22.212C68.5713 22.396 69.0913 22.488 69.6673 22.488C70.2033 22.488 70.6633 22.428 71.0473 22.308C71.4393 22.18 71.7753 22.044 72.0553 21.9C72.3353 21.756 72.5673 21.624 72.7513 21.504C72.9433 21.376 73.1073 21.312 73.2433 21.312C73.4193 21.312 73.5553 21.38 73.6513 21.516L74.2513 22.296Z" fill="#FC371C"/>
</svg>
