<svg width="869" height="602" viewBox="0 0 869 602" fill="none" xmlns="http://www.w3.org/2000/svg">
<path d="M428.882 115.306C455.68 146.642 461.645 191.117 449.441 237.821C437.238 284.52 406.885 333.339 361.235 373.159C315.585 412.98 263.346 436.205 215.824 441.604C168.297 447.004 125.597 434.572 98.7987 403.236C72.0007 371.9 66.0352 327.424 78.2394 280.72C90.4422 234.022 120.794 185.204 166.445 145.383C212.095 105.562 264.334 82.3362 311.856 76.9373C359.383 71.5379 402.084 83.9696 428.882 115.306Z" stroke="#262262" stroke-width="2"/>
<path d="M458.462 124.498C485.26 155.834 491.226 200.31 479.022 247.014C466.819 293.712 436.466 342.531 390.816 382.352C345.165 422.172 292.927 445.398 245.405 450.797C197.878 456.196 155.178 443.764 128.38 412.428C101.582 381.092 95.6161 336.617 107.82 289.913C120.023 243.215 150.375 194.396 196.025 154.575C241.676 114.754 293.915 91.5286 341.437 86.1297C388.964 80.7303 431.664 93.162 458.462 124.498Z" stroke="#262262" stroke-width="2"/>
<path d="M500.559 133.69C527.357 165.026 533.322 209.502 521.118 256.206C508.915 302.904 478.563 351.723 432.912 391.544C387.262 431.365 335.023 454.59 287.501 459.989C239.974 465.389 197.274 452.957 170.476 421.621C143.678 390.285 137.712 345.809 149.916 299.105C162.119 252.407 192.471 203.588 238.122 163.768C283.772 123.947 336.012 100.721 383.533 95.3221C431.06 89.9226 473.761 102.354 500.559 133.69Z" stroke="#8DC63F" stroke-width="2"/>
<path d="M542.655 142.883C569.453 174.219 575.418 218.695 563.214 265.399C551.011 312.097 520.659 360.916 475.008 400.737C429.358 440.558 377.119 463.783 329.598 469.182C282.07 474.581 239.37 462.15 212.572 430.814C185.774 399.478 179.808 355.002 192.013 308.298C204.215 261.6 234.567 212.781 280.218 172.96C325.868 133.14 378.108 109.914 425.629 104.515C473.156 99.1155 515.857 111.547 542.655 142.883Z" stroke="#2AB2DB" stroke-width="2"/>
<path d="M584.751 152.076C611.549 183.412 617.514 227.887 605.31 274.591C593.107 321.29 562.755 370.109 517.104 409.929C471.454 449.75 419.215 472.975 371.694 478.374C324.167 483.774 281.466 471.342 254.668 440.006C227.87 408.67 221.904 364.194 234.109 317.49C246.311 270.792 276.664 221.974 322.314 182.153C367.964 142.332 420.204 119.106 467.725 113.707C515.252 108.308 557.953 120.74 584.751 152.076Z" stroke="#8DC63F" stroke-width="2"/>
<path d="M626.847 161.268C653.645 192.604 659.611 237.08 647.406 283.784C635.204 330.482 604.851 379.301 559.2 419.122C513.55 458.942 461.311 482.168 413.79 487.567C366.263 492.966 323.562 480.534 296.764 449.198C269.966 417.862 264.001 373.387 276.205 326.683C288.408 279.985 318.76 231.166 364.41 191.345C410.061 151.524 462.3 128.299 509.821 122.9C557.348 117.5 600.049 129.932 626.847 161.268Z" stroke="#262262" stroke-width="2"/>
<path d="M668.943 170.46C695.741 201.796 701.707 246.272 689.502 292.976C677.3 339.674 646.947 388.493 601.296 428.314C555.646 468.135 503.407 491.36 455.886 496.759C408.359 502.159 365.658 489.727 338.86 458.391C312.062 427.055 306.097 382.579 318.301 335.875C330.504 289.177 360.856 240.358 406.506 200.538C452.157 160.717 504.396 137.491 551.917 132.092C599.445 126.693 642.145 139.124 668.943 170.46Z" stroke="#262262" stroke-width="2"/>
<path d="M711.039 179.653C737.837 210.989 743.803 255.465 731.598 302.169C719.396 348.867 689.043 397.686 643.393 437.507C597.742 477.328 545.503 500.553 497.982 505.952C450.455 511.351 407.754 498.92 380.956 467.584C354.158 436.248 348.193 391.772 360.397 345.068C372.6 298.37 402.952 249.551 448.602 209.731C494.253 169.91 546.492 146.684 594.013 141.285C641.541 135.886 684.241 148.317 711.039 179.653Z" stroke="#262262" stroke-width="2"/>
<path d="M753.135 188.846C779.933 220.182 785.899 264.657 773.695 311.361C761.492 358.06 731.139 406.879 685.489 446.699C639.838 486.52 587.599 509.745 540.078 515.144C492.551 520.544 449.851 508.112 423.053 476.776C396.255 445.44 390.289 400.964 402.493 354.26C414.696 307.562 445.048 258.744 490.698 218.923C536.349 179.102 588.588 155.876 636.11 150.477C683.637 145.078 726.337 157.51 753.135 188.846Z" stroke="#262262" stroke-width="2"/>
<path d="M445.947 124.498C472.745 155.834 478.711 200.31 466.507 247.014C454.304 293.712 423.951 342.531 378.301 382.352C332.65 422.172 280.412 445.398 232.89 450.797C185.363 456.196 142.663 443.764 115.865 412.428C89.0667 381.092 83.1011 336.617 95.3053 289.913C107.508 243.215 137.86 194.396 183.51 154.575C229.161 114.754 281.4 91.5286 328.922 86.1297C376.449 80.7303 419.149 93.162 445.947 124.498Z" stroke="#8DC63F" stroke-width="2"/>
<path d="M475.528 133.69C502.326 165.026 508.292 209.502 496.088 256.206C483.885 302.904 453.532 351.723 407.882 391.544C362.232 431.365 309.993 454.59 262.471 459.989C214.944 465.389 172.244 452.957 145.446 421.621C118.648 390.285 112.682 345.809 124.886 299.105C137.089 252.407 167.441 203.588 213.092 163.768C258.742 123.947 310.981 100.721 358.503 95.3221C406.03 89.9226 448.731 102.354 475.528 133.69Z" stroke="#262262" stroke-width="2"/>
<path d="M517.625 142.883C544.423 174.219 550.388 218.695 538.184 265.399C525.981 312.097 495.629 360.916 449.978 400.737C404.328 440.558 352.089 463.783 304.567 469.182C257.04 474.581 214.34 462.15 187.542 430.814C160.744 399.478 154.778 355.002 166.982 308.298C179.185 261.6 209.537 212.781 255.188 172.96C300.838 133.14 353.078 109.914 400.599 104.515C448.126 99.1155 490.827 111.547 517.625 142.883Z" stroke="#262262" stroke-width="2"/>
<path d="M559.721 152.076C586.519 183.412 592.484 227.887 580.28 274.591C568.077 321.29 537.725 370.109 492.074 409.929C446.424 449.75 394.185 472.975 346.664 478.374C299.136 483.774 256.436 471.342 229.638 440.006C202.84 408.67 196.874 364.194 209.079 317.49C221.281 270.792 251.633 221.974 297.284 182.153C342.934 142.332 395.174 119.106 442.695 113.707C490.222 108.308 532.923 120.74 559.721 152.076Z" stroke="#262262" stroke-width="2"/>
<path d="M601.817 161.268C628.615 192.604 634.58 237.08 622.376 283.784C610.173 330.482 579.821 379.301 534.17 419.122C488.52 458.942 436.281 482.168 388.76 487.567C341.233 492.966 298.532 480.534 271.734 449.198C244.936 417.862 238.97 373.387 251.175 326.683C263.377 279.985 293.73 231.166 339.38 191.345C385.03 151.524 437.27 128.299 484.791 122.9C532.318 117.5 575.019 129.932 601.817 161.268Z" stroke="#262262" stroke-width="2"/>
<path d="M643.913 170.46C670.711 201.796 676.676 246.272 664.472 292.976C652.269 339.674 621.917 388.493 576.266 428.314C530.616 468.135 478.377 491.36 430.856 496.759C383.329 502.159 340.628 489.727 313.83 458.391C287.032 427.055 281.067 382.579 293.271 335.875C305.474 289.177 335.826 240.358 381.476 200.538C427.126 160.717 479.366 137.491 526.887 132.092C574.414 126.693 617.115 139.124 643.913 170.46Z" stroke="#2AB2DB" stroke-width="2"/>
<path d="M686.009 179.653C712.807 210.989 718.773 255.465 706.568 302.169C694.366 348.867 664.013 397.686 618.363 437.507C572.712 477.328 520.473 500.553 472.952 505.952C425.425 511.351 382.724 498.92 355.926 467.584C329.128 436.248 323.163 391.772 335.367 345.068C347.57 298.37 377.922 249.551 423.572 209.731C469.223 169.91 521.462 146.684 568.983 141.285C616.511 135.886 659.211 148.317 686.009 179.653Z" stroke="#8DC63F" stroke-width="2"/>
<path d="M728.105 188.846C754.903 220.182 760.869 264.657 748.665 311.361C736.462 358.06 706.109 406.879 660.459 446.699C614.808 486.52 562.569 509.745 515.048 515.144C467.521 520.544 424.82 508.112 398.022 476.776C371.224 445.44 365.259 400.964 377.463 354.26C389.666 307.562 420.018 258.744 465.668 218.923C511.319 179.102 563.558 155.876 611.08 150.477C658.607 145.078 701.307 157.51 728.105 188.846Z" stroke="#262262" stroke-width="2"/>
<path d="M770.201 198.038C796.999 229.374 802.965 273.85 790.761 320.554C778.558 367.252 748.205 416.071 702.555 455.892C656.904 495.712 604.665 518.938 557.144 524.337C509.617 529.736 466.916 517.304 440.118 485.968C413.32 454.632 407.355 410.157 419.559 363.453C431.762 316.755 462.114 267.936 507.764 228.115C553.415 188.294 605.654 165.069 653.176 159.67C700.703 154.27 743.403 166.702 770.201 198.038Z" stroke="#2AB2DB" stroke-width="2"/>
</svg>
